<?xml version="1.0" encoding="utf-8"?><!DOCTYPE svg PUBLIC "-//W3C//DTD SVG 1.1//EN" "http://www.w3.org/Graphics/SVG/1.1/DTD/svg11.dtd"><svg viewBox="0 0 2000 2000" xmlns="http://www.w3.org/2000/svg" xmlns:xlink="http://www.w3.org/1999/xlink"><style>:root>svg{display:none}:root>svg:target{display:block}</style><svg viewBox="0 0 32 32" id="angular-icon" xmlns="http://www.w3.org/2000/svg"><path fill="#dd0031" d="M16 2L2.966 6.648l1.988 17.234L16 30l11.046-6.118 1.988-17.234L16 2z"/><path fill="#c3002f" d="M16 2v3.108-.014V30l11.046-6.118 1.988-17.234L16 2z"/><path d="M16 5.094l-8.148 18.27h3.038l1.638-4.088h6.916l1.638 4.088h3.038L16 5.094zm2.38 11.662h-4.76L16 11.03z" fill="#fff"/></svg><svg fill="none" viewBox="0 0 24 18" id="arrow" xmlns="http://www.w3.org/2000/svg"><path d="M18.255 10.5l-5.37 5.385L15 18l9-9-9-9-2.115 2.115 5.37 5.385H0v3h18.255z" fill="#fff"/></svg><svg viewBox="0 0 512 512" id="css-icon" xmlns="http://www.w3.org/2000/svg"><path fill="#0096e6" d="M487.915 3.52A10.687 10.687 0 00480 0H32c-3.029 0-5.888 1.28-7.915 3.52a10.611 10.611 0 00-2.709 8.213L64.043 438.4a10.636 10.636 0 007.232 9.045l192 64c1.088.384 2.24.555 3.371.555 1.28 0 2.539-.235 3.776-.683l170.667-64c3.797-1.408 6.464-4.885 6.869-8.917l42.667-426.667a10.647 10.647 0 00-2.71-8.213zm-60.566 426.155l-160.917 60.352-181.867-60.63-40.81-408.064h424.427l-40.833 408.342z"/><path fill="#0096e6" d="M402.816 110.485a10.695 10.695 0 00-8.171-3.797h-256c-5.888 0-10.667 4.779-10.667 10.667s4.779 10.667 10.667 10.667h243.307l-14.827 85.312H149.312c-5.888 0-10.667 4.779-10.667 10.667s4.779 10.667 10.667 10.667h214.101l-20.907 120.171-76.075 28.523-86.549-28.864-9.451-47.253a10.61 10.61 0 00-12.544-8.363c-5.76 1.152-9.515 6.763-8.363 12.544l10.667 53.333a10.661 10.661 0 007.083 8.021l96 32c1.088.384 2.24.555 3.371.555 1.28 0 2.539-.235 3.755-.661l85.333-32c3.541-1.344 6.123-4.437 6.763-8.171l42.667-245.333a10.678 10.678 0 00-2.347-8.685z"/></svg><svg viewBox="0 0 32 32" id="gulp" xmlns="http://www.w3.org/2000/svg"><path fill="#d34a47" d="M22.154 1a.14.14 0 00-.093.033l-3.715 4.412-.758 2.606a48.434 48.434 0 00-1.592-.024c-3.86 0-6.996.41-6.996.916 0 1.21 13.99 1.21 13.99 0 0-.375-1.675-.691-4.09-.841l.6-2.145 3.475-4.18.005-.006c.078-.08-.074-.324-.322-.537-.186-.16-.381-.239-.504-.234zm-4.851 8.076l-.014.041c-.006.005-.006.012-.006.018 0 .075.303.136.672.136.37 0 .674-.061.674-.136l.012-.047c.097.035.15.075.15.121 0 .121-.375.22-.842.215-.454 0-.83-.092-.83-.213 0-.052.075-.1.184-.135zm5.61.344c-1.852.987-11.963.994-13.821.014l.822 7.232c.357-1.153 1.26-2.71 2.422-3.182.38-.156.768-.155 1.13.053.316.173.582.536.612.68.073.375-.12.523-.271.523-.182 0-.321-.264-.412-.42-.248-.42-.624-.439-1.024-.162-.418.288-.781.773-1.035 1.194a6.631 6.631 0 00-.727 1.625c-.09.323-.174.84-.035 1.146.061.127.151.207.297.207.303 0 .743-.38.955-.582.272-.259.623-.663.756-.922l.316-.892c.157-.392.598-.323.598 0 0 .588-.222.784-.603 2-.351 1.124-.461 1.488-.461 1.488-.042.16-.206.432-.381.432-.073 0-.126-.025-.156-.07-.061-.082-.055-.304-.05-.362.013-.184.381-1.28.442-1.453a7.36 7.36 0 01-.387.38c-.327.295-.852.68-1.3.68a.762.762 0 01-.465-.138l.459 4.588c.12.288 2.373.986 5.338.986 2.97 0 5.22-.703 5.336-.986l.66-5.452c-.345.3-.744.67-1.186.854-.327.133-1.053.218-1.053-.33 0-.3.552-.852.872-1.238.085-.098.283-.34.283-.467 0-.167-.362-.129-.707.142a3.373 3.373 0 00-.528.56c-.26.347-.398.645-.513.893-.375.818-.248.496-.551 1.268-.303.767-.254.68-.315.807a.565.565 0 01-.242.26.38.38 0 01-.369-.018c-.054-.035-.08-.11-.08-.213 0-.052.008-.104.02-.156.09-.352.472-1.043.908-1.977.097-.213.06-.15.047-.133-.375.346-.66.514-.871.606-.351.15-.787.15-.877-.237-.006-.023-.006-.047-.012-.07-.714.53-1.47.674-1.21-.467-.277.473-.763.86-1.357.86-.247 0-.429-.08-.519-.293-.139-.317.078-.86.277-1.373.103-.26.244-.57.432-.934.097-.196.253-.312.459-.26a.54.54 0 01.098.041c.157.104.096.258.017.414-.23.432-.43.75-.562 1.2-.054.19-.122.52.09.52a.728.728 0 00.417-.14c.278-.196.502-.489.672-.777a3.85 3.85 0 00.34-.709c.03-.098.068-.19.11-.277.067-.144.156-.293.314-.293.079 0 .144.029.193.086.103.127.08.257.026.396-.121.323-.284.612-.418.963-.08.202-.164.461-.164.674 0 .196.224.15.412.068.145-.063.29-.16.412-.257.073-.282.054-.22 1.598-3.932.079-.19.224-.272.369-.272a.34.34 0 01.193.065c.103.075.105.234.063.355-.042.11-.038.076-.274.606-.315.697-.52 1.2-.799 1.84-.115.265-.465 1.089-.525 1.285-.036.127-.08.334.06.334.328 0 1.169-.756 1.399-.98.012-.018.03-.024.055-.036.036-.11.071-.212.101-.316.085-.22.164-.475.322-.653.048-.058.103-.091.163-.091.169 0 .253.068.253.23 0 .063-.04.295-.066.358.085-.086.175-.172.272-.258.908-.801 1.554-.393 1.554.011 0 .426-.538 1.02-.834 1.348-.097.11-.296.311-.302.37 0 .074.053.105.132.105.121 0 .388-.203.485-.272.303-.225.713-.57 1.004-.812l.896-7.885zM10.93 24.03l.902 1.465.352 4.576c0 .513 1.712.928 3.818.928s3.818-.415 3.818-.928l.28-4.623.851-1.418c-2.397.963-7.527.997-10.021 0z"/></svg><svg viewBox="0 0 299.215 299.215" id="html-icon" xmlns="http://www.w3.org/2000/svg"><path fill="#fb8028" d="M22.347 0c-2.75 0-4.799 2.241-4.555 4.98l23.184 260.047c.244 2.739 2.611 5.582 5.262 6.318l98.381 27.316c2.65.736 6.986.736 9.637.002l98.68-27.361c2.65-.735 5.02-3.578 5.264-6.316L281.422 4.98c.246-2.739-1.805-4.98-4.555-4.98H22.347zm209.702 59.641l-.842 9.423-.611 6.823c-.246 2.738-.596 6.654-.781 8.701-.184 2.048-.359 3.723-.391 3.723H107.759c-2.75 0-4.799 2.241-4.555 4.98l2.143 23.955c.244 2.738 2.695 4.98 5.445 4.98H222.004c2.449 0 4.273 1.999 4.051 4.442a5396.99 5396.99 0 00-.848 9.423l-6.891 77.228c-.246 2.739-.557 6.238-.691 7.776-.137 1.537-2.416 3.396-5.066 4.131l-58.133 16.119c-2.65.734-4.852 1.342-4.893 1.351-.041.009-2.242-.586-4.893-1.321l-58.195-16.148c-2.65-.735-5.018-3.578-5.262-6.317l-3.746-42.045c-.244-2.739 1.807-4.98 4.557-4.98h23.231c2.75 0 5.199 2.241 5.445 4.98l1.469 16.459c.244 2.739 2.615 5.566 5.271 6.283l27.221 7.351c2.654.717 4.836 1.304 4.848 1.304s2.193-.588 4.848-1.305l27.27-7.369c2.654-.717 5.027-3.545 5.273-6.283l2.957-32.976c.246-2.739-1.803-4.98-4.553-4.98H80.511c-2.75 0-5.199-2.242-5.443-4.98l-7.256-81.306-.842-9.423c-.217-2.443 1.854-4.442 4.604-4.442H227.446c2.749 0 4.821 1.999 4.603 4.443z"/></svg><svg viewBox="0 0 32 32" id="js-icon" xmlns="http://www.w3.org/2000/svg"><path fill="#f1dc50" d="M2 2v28h28V2zm15.238 21.837c0 2.725-1.6 3.969-3.931 3.969-2.106 0-3.325-1.087-3.95-2.406l2.144-1.294c.413.731.788 1.35 1.694 1.35.862 0 1.412-.338 1.412-1.656v-8.944h2.631zm6.224 3.969c-2.444 0-4.025-1.162-4.794-2.688l2.144-1.237c.563.919 1.3 1.6 2.594 1.6 1.087 0 1.788-.544 1.788-1.3 0-.9-.713-1.219-1.919-1.75l-.656-.281c-1.9-.806-3.156-1.825-3.156-3.969 0-1.975 1.506-3.475 3.85-3.475 1.675 0 2.875.581 3.738 2.106l-2.05 1.313c-.45-.806-.938-1.125-1.694-1.125-.768 0-1.256.488-1.256 1.125 0 .788.488 1.106 1.619 1.6l.656.281c2.238.956 3.494 1.938 3.494 4.137 0 2.363-1.863 3.662-4.357 3.662z"/></svg><svg viewBox="44 11 911.963 978.148" id="ngrx" xmlns="http://www.w3.org/2000/svg"><g fill="none" fill-rule="evenodd"><path d="M500.963 11L44 169.62l65.419 606.244 391.544 213.284z" fill="#412846"/><path d="M499 11l456.963 158.62-65.42 606.244L499 989.148z" fill="#4b314f"/><path d="M727.748 345.712l-.082-.26c20.865 23.224 31.583 50.799 32.152 82.727.57 31.927-10.148 65.607-32.399 100.935 16.63-12.928 35.835-40.833 57.552-83.393 9.381 86.252-25.475 151.768-104.894 196.637 25.356-2.338 59.021-19.032 100.775-50.14-44.557 107.274-126.484 163.873-245.78 169.798-115.293-.031-189.981-69.315-189.923-69.271-47.4-36.892-80.013-83.389-97.728-139.284-28.35-30.96-28.632-34.28-31.557-46.65-2.924-12.372 1.848-15.828 10.152-27.933 5.537-8.07 6.841-19.68 3.997-34.62-7.058-9.788-11.122-25.117-12.193-45.988 0-10.086 6.73-20.728 20.194-31.925 13.462-11.198 21.722-19.81 24.714-25.738 2.282-3.233 3.164-17.246 2.645-42.04-.14-24.353 13.382-37.603 40.565-39.748 40.773-3.22 63.768-33.884 76.578-47.83 8.54-9.297 21.18-13.816 37.12-13.903 22.444-1.052 42.864 7.551 60.455 25.305 43.815-2.266 88.696 9.55 134.171 35.148 64.624 38.389 99.893 79.961 105.806 124.508-6.926 58.625-85.68 57.093-235.91-4.612-78.617 22.269-117.268 70.525-115.984 144.768-.053 68.129 32.92 117.635 98.693 148.468-32.058-31.473-45.71-57.927-41.112-79.835 66.68 78.967 142.632 108.482 227.726 88.551-37.516 1.31-67.233-10.762-89.598-36.396 57.518-1.398 111.815-28.099 162.945-80.373-29.515 23.488-60.4 32.381-93.101 26.787 88.567-69.631 119.908-150.862 94.021-243.693zM567 335c7.18 0 13-5.82 13-13s-5.82-13-13-13-13 5.82-13 13 5.82 13 13 13z" fill="#ba2bd2"/></g></svg><svg viewBox="0 0 512 512" id="react-icon" xmlns="http://www.w3.org/2000/svg"><path fill="#61dafb" d="M387.176 255.949c51.343-43.046 83.887-87.512 68.022-114.939-15.865-27.427-70.668-21.486-133.655 1.483C309.94 76.458 287.733 26 256.043 26c-31.69 0-53.917 50.448-65.53 116.338a403.375 403.375 0 00-44.827-13.61c-47.09-11.109-77.812-6.867-88.85 12.241-15.916 27.54 16.68 71.986 68.064 115.052-51.385 43.065-83.98 87.51-68.104 115.01 7.021 12.159 22.001 18.295 44.095 18.295 12.643 0 27.612-2.06 44.754-6.054a403.406 403.406 0 0044.827-13.61C202.074 435.645 224.272 486 256.002 486c31.73 0 53.917-50.448 65.53-116.338a403.406 403.406 0 0044.827 13.61c17.142 4.046 32.111 6.054 44.754 6.054 22.094 0 37.064-6.177 44.095-18.295 11.037-19.119-.659-47.843-33.82-83.064a403.334 403.334 0 00-34.212-32.018zm-17.05-111.12c37.064-8.74 64.172-7.03 70.803 4.449 6.63 11.479-5.457 35.828-31.546 63.543a392.678 392.678 0 01-35.138 32.657c-13.744-10.83-28.714-21.569-44.61-31.998-1.102-18.614-2.934-36.971-5.457-54.494a392.915 392.915 0 0145.949-14.156zM285.21 306.624q-14.63 8.442-29.218 15.999-14.558-7.547-29.219-16-14.66-8.452-28.467-17.296a737.41 737.41 0 010-66.6q13.817-8.834 28.467-17.297 14.65-8.463 29.27-16.01 14.558 7.547 29.219 16 14.66 8.452 28.436 17.306a737.294 737.294 0 010 66.601q-13.837 8.834-28.488 17.297zm27.252 2.934c-.968 12.91-2.285 25.45-3.943 37.486-11.243-4.582-22.753-9.71-34.418-15.32q9.668-5.21 19.335-10.79 9.668-5.58 19.026-11.376zm-74.58 22.176c-11.654 5.611-23.165 10.728-34.418 15.32-1.657-12.046-2.975-24.575-3.943-37.486q9.43 5.838 19.016 11.377 9.585 5.539 19.345 10.738zm-56.44-53.536c-10.697-7.29-20.889-14.702-30.495-22.156 9.606-7.454 19.798-14.866 30.495-22.156q-.34 11.089-.35 22.156-.01 11.068.35 22.135zm18.08-75.713c.967-12.91 2.285-25.45 3.942-37.485a612.675 612.675 0 0134.439 15.33q-9.77 5.25-19.366 10.779-9.595 5.529-19.016 11.376zm74.58-22.176c11.654-5.611 23.164-10.728 34.417-15.32a617.331 617.331 0 013.943 37.465q-9.338-5.765-19.016-11.325-9.677-5.56-19.345-10.769zm56.45 53.536c10.696 7.29 20.889 14.702 30.494 22.156-9.605 7.454-19.798 14.867-30.495 22.156q.34-11.088.35-22.156.01-11.068-.35-22.135zM216.744 101.59c10.955-36.446 25.996-59.096 39.257-59.096 13.26 0 28.292 22.65 39.256 59.096a392.863 392.863 0 0110.728 46.875c-16.472 6.569-33.254 14.167-49.922 22.516-16.988-8.545-33.77-16.143-50.026-22.65a392.668 392.668 0 0110.707-46.74zM102.641 212.78c-26.088-27.715-38.175-52.063-31.555-63.543 6.62-11.48 33.758-13.178 70.801-4.447a392.894 392.894 0 0145.96 14.146c-2.533 17.502-4.366 35.93-5.468 54.565-15.587 10.296-30.587 21.044-44.517 32.009a392.863 392.863 0 01-35.22-32.73zm39.257 154.432c-37.064 8.741-64.172 7.032-70.802-4.447-6.63-11.48 5.426-35.798 31.545-63.503a392.874 392.874 0 0135.231-32.729c13.93 10.965 28.93 21.744 44.518 32.019 1.101 18.635 2.934 37.064 5.466 54.566a392.894 392.894 0 01-46 14.094zm153.402 43.24c-10.955 36.446-25.996 59.096-39.257 59.096-13.26 0-28.292-22.65-39.256-59.096a392.668 392.668 0 01-10.708-46.751c16.236-6.487 32.997-14.074 49.964-22.65 16.967 8.534 33.728 16.122 49.964 22.65a392.668 392.668 0 01-10.759 46.751zm145.68-47.678c-6.63 11.48-33.759 13.188-70.802 4.448a392.905 392.905 0 01-45.958-14.146c2.532-17.503 4.365-35.931 5.466-54.566 15.588-10.296 30.588-21.044 44.518-32.019a392.894 392.894 0 0135.18 32.77c26.088 27.705 38.154 52.054 31.545 63.534zm-208.081-105.25a22.876 22.876 0 1122.876 22.876 22.876 22.876 0 01-22.876-22.876z"/></svg><svg viewBox="0 -6 256 256" preserveAspectRatio="xMidYMid" id="redux-icon" xmlns="http://www.w3.org/2000/svg"><path fill="#764abc" d="M177.381 169.733c9.447-.978 16.614-9.122 16.288-18.896-.325-9.773-8.47-17.592-18.243-17.592h-.651c-10.1.326-17.918 8.796-17.592 18.895.326 4.887 2.28 9.122 5.212 12.054-11.076 21.828-28.016 37.791-53.426 51.148-17.266 9.122-35.183 12.38-53.1 10.1-14.66-1.955-26.062-8.47-33.23-19.222-10.424-15.963-11.401-33.23-2.605-50.496 6.19-12.38 15.962-21.502 22.152-26.063-1.303-4.235-3.258-11.402-4.235-16.614-47.237 34.207-42.35 80.468-28.016 102.295 10.75 16.29 32.577 26.389 56.684 26.389 6.515 0 13.03-.652 19.546-2.28 41.699-8.145 73.299-32.905 91.216-69.718zm57.336-40.397c-24.759-28.995-61.245-44.958-102.944-44.958h-5.212c-2.932-5.864-9.122-9.774-15.963-9.774h-.652C99.848 74.93 92.03 83.4 92.355 93.5c.326 9.773 8.47 17.592 18.243 17.592h.651c7.167-.326 13.357-4.887 15.963-11.077h5.864c24.759 0 48.214 7.167 69.39 21.176 16.288 10.751 28.016 24.76 34.531 41.7 5.538 13.683 5.212 27.04-.652 38.443-9.121 17.266-24.432 26.714-44.63 26.714-13.031 0-25.41-3.91-31.926-6.842-3.583 3.258-10.099 8.47-14.66 11.729 14.009 6.515 28.343 10.099 42.025 10.099 31.274 0 54.404-17.267 63.2-34.533 9.447-18.896 8.795-51.474-15.637-79.165zM69.225 175.27c.326 9.774 8.47 17.592 18.243 17.592h.652c10.099-.325 17.917-8.796 17.591-18.895-.325-9.774-8.47-17.592-18.243-17.592h-.651c-.652 0-1.63 0-2.28.325-13.357-22.153-18.895-46.26-16.94-72.323 1.302-19.547 7.818-36.488 19.22-50.497 9.447-12.054 27.69-17.918 40.07-18.243 34.531-.652 49.19 42.351 50.168 59.618 4.235.977 11.402 3.258 16.289 4.887C189.434 27.366 156.857 0 125.584 0c-29.32 0-56.359 21.176-67.11 52.451-14.985 41.7-5.212 81.771 13.031 113.372-1.628 2.28-2.606 5.864-2.28 9.448z"/></svg><svg viewBox="12.1 8.4 262.8 272.2" id="rxjs" xmlns="http://www.w3.org/2000/svg"><linearGradient id="ja" gradientUnits="userSpaceOnUse" x1="53.496" x2="177.932" y1="247.701" y2="115.323"><stop offset="0" stop-color="#e01d84"/><stop offset=".401" stop-color="#df1d85"/><stop offset=".77" stop-color="#932c87"/><stop offset="1" stop-color="#5d2f88"/></linearGradient><radialGradient id="jb" cx="190.456" cy="80.2" gradientTransform="matrix(1 .00239 -.002 .8362 .16 12.685)" gradientUnits="userSpaceOnUse" r="121.582"><stop offset="0" stop-color="#e01d84"/><stop offset=".139" stop-color="#de1e85"/><stop offset=".285" stop-color="#d62085"/><stop offset=".434" stop-color="#c92386"/><stop offset=".586" stop-color="#b72786"/><stop offset=".739" stop-color="#9d2b87"/><stop offset=".891" stop-color="#7c2e88"/><stop offset="1" stop-color="#5d2f88"/></radialGradient><linearGradient id="jc" gradientUnits="userSpaceOnUse" x1="83.212" x2="137.371" y1="62.336" y2="62.336"><stop offset="0" stop-color="#e01d84"/><stop offset=".238" stop-color="#da1e85"/><stop offset=".658" stop-color="#c72085"/><stop offset=".999" stop-color="#b52284"/></linearGradient><path d="M29.6 175.3c-5.2-16.2-6.7-33.3-3.7-50.9 1.3-7.3 3.3-14.3 5.5-21.4 0 0 13.8-45.3 60.5-66 0 0 16.1-8.5 40.3-9.1 0 0-3.3-3.2-5.4-4.6-11.4-7.6-28.4-10.1-38.7.6-3.1 3.2-5.7 6.7-8.6 9.9-3.3 3.6-7.3 6.6-11.9 8.3-4 1.5-8 1.2-12.1 1.9-4.2.7-8.5 2.2-11.9 4.9-3.7 3-5.2 7-5.6 11.6-.4 3.6-.3 7.3-.5 10.9C37 82 33.6 85 26 90.9c-3.2 2.4-5.9 5.6-7.9 9-6 10.6 3.6 21.6 4.1 32.3.1 2.2-.1 4.4-.9 6.5-.8 2.3-2.4 3.8-3.7 5.7-1.8 2.5-3 5.5-2.5 8.6s2.1 6 3.6 8.7c2.9 4.8 6.5 9.1 10.3 13.2.2 0 .4.2.6.4" fill="#e32286"/><path d="M220.4 213.7c23-10 32.8-27.3 32.8-27.3 21.5-29.3 14.2-60.2 14.2-60.2-13.7 29.8-26.2 38-26.2 38 33.7-51.3.2-82.3.2-82.3 13.7 29.2-4.5 64.8-4.5 64.8-15.3 32.2-37 43.7-37 43.7 24.2 4.5 42-11.8 42-11.8-34.7 37.5-72.3 35.7-72.3 35.7 15.8 17.7 39.5 16.2 39.5 16.2-31 7.3-60.1-3-84-22.9-4.5-3.7-8.8-7.7-12.8-12 0 0-3.6-3.8-4.3-4.8l-.1-.1c-.5 18.5 18.8 35.7 18.8 35.7-24.2-10-35.3-31.7-35.3-31.7s-16.3-27.8-4.5-59.5 47.5-38.5 47.5-38.5c29.5 14.3 54.5 18.8 54.5 18.8 52.7 8.8 49.7-17 49.7-17 .5-22.2-33-45.8-33-45.8C145.9 8.4 91.9 37 91.9 37c-46.7 20.7-60.5 66-60.5 66-2.2 7.1-4.2 14.1-5.5 21.4-5.1 29.7 2.6 57.8 19.3 82.8 26 38.8 68.2 52.2 68.2 52.2 62.5 21.2 105.2-10 105.2-10 39.3-27 47.2-58.2 47.2-58.2-31.7 24.8-45.4 22.5-45.4 22.5zM171.6 67.8c3 0 5.4 2.4 5.4 5.4s-2.4 5.4-5.4 5.4-5.4-2.4-5.4-5.4 2.4-5.4 5.4-5.4z" fill="url(#ja)"/><path d="M238.5 98.4c.5-22.2-33-45.8-33-45.8C145.8 8.4 91.8 37 91.8 37c-46.7 20.7-60.5 66-60.5 66-2.7 7.7-5.1 19.5-5.1 19.5-2.9 14.8-1.6 28.5-1.6 28.5 1.2 13.1 4.1 21.9 4.1 21.9 3 9.4 4.4 12.3 4.4 12.3-.1-.3-.6-2.5-.6-2.5s-4.2-20.2-.3-39.6c0 0 3.4-20.2 17.2-35.8 0 0 22.4-31.9 64.1-19.4 0 0 9 3.2 12.1 4.8 3.1 1.5 8.5 3.8 8.5 3.8 29.5 14.3 54.5 18.8 54.5 18.8 52.9 8.9 49.9-16.9 49.9-16.9zm-66.9-19.7c-3 0-5.4-2.4-5.4-5.4s2.4-5.4 5.4-5.4 5.4 2.4 5.4 5.4-2.4 5.4-5.4 5.4z" fill="url(#jb)"/><path d="M137.4 58.2l-34.1-10.6c-.2 0-1.2-.5-3 0 0 0-20.1 5.1-16.6 16.1 0 0 2.1 6.9 7.8 13.6l37.5-1.8z" fill="url(#jc)"/></svg><svg viewBox="0 0 32 32" id="sass-icon" xmlns="http://www.w3.org/2000/svg"><path fill="#c69" d="M31.641 21.161c-.109-.911-.578-1.618-1.286-2.172-.82-.641-1.78-.905-2.803-.947a6.327 6.327 0 00-2.437.376c-.224.081-.444.177-.67.268-.03-.055-.062-.107-.088-.162-.232-.474-.512-.927-.573-1.47-.044-.386-.098-.772-.006-1.153.088-.367.204-.728.312-1.091.056-.187.017-.291-.161-.375a.724.724 0 00-.197-.065 3.04 3.04 0 00-1.293.096c-.15.044-.259.128-.292.294-.019.095-.058.186-.084.28-.111.391-.189.789-.368 1.161-.449.934-.96 1.832-1.485 2.724-.057.096-.116.191-.188.308-.184-.385-.38-.73-.44-1.136-.067-.458-.12-.915-.006-1.37.085-.339.196-.672.298-1.006.049-.159.026-.242-.118-.326a.696.696 0 00-.237-.092 2.904 2.904 0 00-1.338.11c-.136.044-.207.132-.249.272-.122.413-.226.836-.397 1.229a429.556 429.556 0 01-2.12 4.753c-.149.33-.323.649-.491.97-.043.082-.104.153-.157.23-.043-.05-.059-.085-.059-.119.001-.203-.023-.413.016-.609.117-.594.252-1.186.395-1.775.117-.486.254-.968.385-1.452.044-.162.045-.313-.072-.449-.195-.228-.603-.278-.845-.102-.026.019-.057.032-.107.061.009-.077.014-.125.021-.173.051-.37.061-.738-.04-1.103-.127-.454-.45-.715-.921-.701a1.98 1.98 0 00-.653.124c-.855.335-1.512.928-2.071 1.642a.64.64 0 01-.189.163c-.723.401-1.449.797-2.174 1.195l-.807.442c-.216-.207-.413-.421-.637-.603-.682-.556-1.375-1.098-2.061-1.648-.608-.487-1.198-.995-1.649-1.64-.336-.48-.552-1.005-.572-1.599-.026-.756.188-1.447.573-2.091.493-.823 1.164-1.483 1.903-2.082.781-.633 1.626-1.17 2.502-1.66 1.225-.686 2.486-1.293 3.837-1.694 1.386-.411 2.791-.646 4.241-.482.57.064 1.123.195 1.632.474.389.213.708.492.857.929.146.43.142.865.04 1.301-.206.883-.69 1.612-1.299 2.263-.998 1.067-2.216 1.793-3.588 2.273a9.843 9.843 0 01-2.441.521c-.682.057-1.35-.003-1.996-.241a2.597 2.597 0 01-1.1-.747c-.054-.063-.122-.13-.222-.072-.098.057-.115.151-.082.245.055.157.105.319.191.459.214.351.527.606.871.825.661.42 1.399.561 2.165.594 1.162.05 2.296-.123 3.413-.435 1.596-.445 2.983-1.231 4.096-2.471.927-1.032 1.588-2.198 1.73-3.605.069-.687-.004-1.36-.326-1.986-.349-.679-.903-1.147-1.566-1.494-.964-.506-2.006-.705-3.081-.763H14a12.844 12.844 0 00-3.786.782c-.926.337-1.835.717-2.717 1.157-1.921.96-3.71 2.108-5.179 3.699-.732.793-1.352 1.663-1.708 2.693-.104.302-.168.622-.243.934-.006.026.023.051-.041.077v.44c.064.113.071.225.1.338.189.733.578 1.363 1.06 1.937.687.818 1.518 1.476 2.38 2.096.747.537 1.505 1.062 2.255 1.595.129.091.248.197.388.309-.12.065-.221.122-.325.175-.99.502-1.942 1.065-2.82 1.747-.529.411-1.041.848-1.402 1.418-.581.918-.787 1.896-.354 2.94.127.305.32.569.592.763a.863.863 0 00.29.15c.264.062.534.103.802.152h.758a4.714 4.714 0 002.291-.838c1.078-.744 1.804-1.741 2.117-3.022.227-.93.236-1.862-.031-2.788-.025-.086-.056-.17-.089-.253s-.071-.164-.116-.268l1.719-.989.026.022c-.031.102-.064.204-.093.308-.204.746-.34 1.505-.291 2.279.052.825.282 1.597.765 2.287.39.558 1.321.578 1.736.019a4 4 0 00.397-.628c.28-.579.54-1.168.807-1.753l.047-.107c-.019.277-.042.52-.052.764-.016.38.006.758.136 1.12.111.31.3.541.655.581.242.028.436-.083.614-.224.279-.22.505-.491.673-.8.475-.873.963-1.74 1.394-2.635.466-.968.873-1.964 1.306-2.948.024-.054.045-.109.072-.175.102.402.174.795.305 1.168.152.432.341.854.547 1.264.097.194.086.32-.049.482-.564.68-1.118 1.368-1.673 2.056a4.542 4.542 0 00-.347.472.915.915 0 00-.12.341.434.434 0 00.346.493c.219.047.453.065.677.048a3.972 3.972 0 002.099-.789c.805-.597 1.064-1.41.869-2.375-.053-.262-.146-.517-.237-.769-.041-.114-.043-.194.031-.3.644-.919 1.194-1.895 1.705-2.892a.613.613 0 01.076-.121c.166.863.415 1.694.862 2.448-.228.22-.454.419-.658.639-.45.483-.84 1.009-1.043 1.649-.087.276-.155.556-.116.852.061.458.436.755.886.651.963-.223 1.795-.677 2.403-1.481.409-.541.446-1.145.275-1.778-.047-.172-.103-.341-.163-.539.238-.074.47-.162.709-.217 1.245-.284 2.476-.234 3.675.215.7.262 1.266.702 1.601 1.393.41.845.183 1.646-.613 2.18-.074.05-.159.089-.221.151a.216.216 0 00-.051.167c.005.031.087.069.133.069.262-.002.474-.139.678-.28.511-.353.848-.829.928-1.454.002-.018-.024-.035.04-.052v-.416c-.064-.017-.037-.034-.039-.052zm-24.355 1.69c-.083 1.115-.588 2.019-1.414 2.75-.465.412-.997.705-1.618.808-.225.037-.455.046-.674-.047-.311-.133-.381-.409-.387-.704-.009-.469.155-.893.38-1.296.294-.526.725-.927 1.185-1.301.725-.59 1.512-1.09 2.317-1.561.013-.008.029-.012.061-.025.124.46.184.914.149 1.377zm6.29-4.845a8.45 8.45 0 01-.236 1.057c-.36 1.194-.821 2.352-1.32 3.493-.092.211-.226.404-.343.604-.018.031-.045.058-.071.084-.144.143-.282.135-.355-.052a3.93 3.93 0 01-.182-.679c-.03-.154-.023-.316-.032-.474.01-1.123.352-2.145.934-3.095.24-.392.501-.765.899-1.014a1.62 1.62 0 01.399-.177c.212-.06.343.039.308.252zm4.291 5.467l1.542-1.801c.064.669-1.072 2.004-1.542 1.801zm4.926-1.211c-.109.062-.228.108-.34.165-.102.053-.136 0-.139-.088a.61.61 0 01.023-.18 3.866 3.866 0 011.162-1.871c.008-.008.021-.011.04-.021a1.651 1.651 0 01-.747 1.995z"/></svg><svg fill="none" viewBox="0 0 37 37" id="social_github" xmlns="http://www.w3.org/2000/svg"><path fill-rule="evenodd" clip-rule="evenodd" d="M18.052 35.392c9.328 0 16.89-7.563 16.89-16.892 0-9.328-7.562-16.89-16.89-16.89C8.722 1.61 1.16 9.171 1.16 18.5c0 9.329 7.563 16.892 16.892 16.892zm-4.515-2.462c1.425.446 2.942.686 4.515.686 1.562 0 3.069-.237 4.486-.677v-3.695a4.488 4.488 0 00-1.34-3.203c4.961-.872 7.037-3.895 7.037-7.492 0-1.745-.58-3.36-1.72-4.655.644-2.003-.024-3.715-.175-4.105l-.019-.048c-1.9-.172-3.87 1.243-4.268 1.545-1.172-.316-2.502-.489-3.995-.489-1.485 0-2.811.165-3.972.479-.166-.13-2.291-1.777-4.336-1.594l-.014.035c-.147.37-.85 2.136-.158 4.187-1.126 1.292-1.7 2.893-1.7 4.635 0 3.59 2.062 6.609 7.01 7.495a4.439 4.439 0 00-1.221 2.14c-.919.229-2.73.46-3.66-.915-1.284-1.897-2.393-2.597-3.48-2.038-.242.279.07.489.514.788.398.267.9.605 1.207 1.127.046.077.09.21.147.38.328.993 1.065 3.226 5.142 2.748v2.666z" fill="#928A97"/></svg><svg fill="none" viewBox="0 0 37 37" id="social_linkedin" xmlns="http://www.w3.org/2000/svg"><g clip-path="url(#mclip0_50_2563)"><path d="M18.086 1.204C8.533 1.204.79 8.948.79 18.5c0 9.553 7.743 17.297 17.296 17.297 9.553 0 17.297-7.744 17.297-17.297 0-9.552-7.744-17.296-17.297-17.296zm-4.234 24.465H10.35V14.398h3.502v11.271zM12.08 13.014c-1.106 0-1.821-.784-1.821-1.753 0-.99.737-1.75 1.866-1.75 1.13 0 1.822.76 1.843 1.75 0 .97-.713 1.753-1.888 1.753zM26.644 25.67h-3.502v-6.246c0-1.454-.508-2.441-1.775-2.441-.967 0-1.542.668-1.796 1.311-.094.229-.117.553-.117.876v6.499h-3.505v-7.676c0-1.407-.045-2.583-.091-3.596H18.9l.16 1.566h.07c.462-.735 1.591-1.82 3.481-1.82 2.305 0 4.032 1.544 4.032 4.863v6.665z" fill="#928A97"/></g><defs><clipPath id="mclip0_50_2563"><path fill="#fff" transform="translate(.069 .483)" d="M0 0h36.035v36.035H0z"/></clipPath></defs></svg><svg viewBox="0 0 24 24" id="ts-icon" xmlns="http://www.w3.org/2000/svg"><path fill="#007acc" d="M0 12v12h24V0H0zm19.341-.956c.61.152 1.074.423 1.501.865.221.236.549.666.575.77.008.03-1.036.73-1.668 1.123-.023.015-.115-.084-.217-.236-.31-.45-.633-.644-1.128-.678-.728-.05-1.196.331-1.192.967a.88.88 0 00.102.45c.16.331.458.53 1.39.933 1.719.74 2.454 1.227 2.911 1.92.51.773.625 2.008.278 2.926-.38.998-1.325 1.676-2.655 1.9-.411.073-1.386.062-1.828-.018-.964-.172-1.878-.648-2.442-1.273-.221-.243-.652-.88-.625-.925a1.58 1.58 0 01.22-.141c.108-.061.511-.294.892-.515l.69-.4.145.214c.202.308.643.731.91.872.766.404 1.817.347 2.335-.118a.883.883 0 00.313-.72c0-.278-.035-.4-.18-.61-.186-.266-.567-.49-1.649-.96-1.238-.533-1.771-.864-2.259-1.39a3.165 3.165 0 01-.659-1.2c-.091-.339-.114-1.189-.042-1.531.255-1.197 1.158-2.03 2.461-2.278.423-.08 1.406-.05 1.821.053zm-5.634 1.002l.008.983H10.59v8.876H8.38v-8.876H5.258v-.964c0-.534.011-.98.026-.99.012-.016 1.913-.024 4.217-.02l4.195.012z"/></svg><svg viewBox="-17 0 290 290" preserveAspectRatio="xMidYMid" id="webpack" xmlns="http://www.w3.org/2000/svg"><path fill="#FFF" d="M128 .048l128 72.405V217.31l-128 72.405L0 217.31V72.453z"/><path d="M233.153 212.287l-100.902 57.14V224.99l62.889-34.632 38.013 21.929zm6.907-6.231V86.654l-36.902 21.3v76.8l36.902 21.302zm-217.6 6.23l100.903 57.094v-44.438l-62.889-34.584-38.014 21.929zm-6.907-6.23V86.654l36.903 21.3v76.8l-36.903 21.302zm4.3-127.13l103.51-58.543v42.99L57.045 99.84l-.532.29-36.66-21.205zm215.86 0L132.251 20.382v42.99l66.27 36.515.531.29 36.661-21.253z" fill="#8ED6FB"/><path d="M123.363 214.847l-62.02-34.15v-67.574l62.02 35.792v65.932zm8.888 0l62.02-34.101v-67.623l-62.02 35.792v65.932zM65.497 105.298l62.31-34.246 62.26 34.246-62.26 35.937-62.31-35.937z" fill="#1C78C0"/></svg></svg>